<svg id="Layer_1" enable-background="new 0 0 512 512" height="512" viewBox="0 0 512 512" width="512" xmlns="http://www.w3.org/2000/svg"><g><path d="m487.933 381.033h-27.412c1.143-2.8 1.779-5.86 1.779-9.066v-165.667c0-22.405-18.228-40.633-40.633-40.633h-332.467c-21.78 0-39.5 17.72-39.5 39.5v167.367c0 2.997.57 5.862 1.597 8.5h-27.23c-13.271-.001-24.067 10.796-24.067 24.066s10.796 24.066 24.067 24.066h11.161l7.305 21.917c5.54 16.618 21.031 27.784 38.548 27.784h27.216c4.142 0 7.5-3.358 7.5-7.5s-3.358-7.5-7.5-7.5h-27.216c-11.05 0-20.823-7.044-24.318-17.527l-5.724-17.173h409.922l-5.724 17.172c-3.495 10.484-13.268 17.528-24.318 17.528h-292.669c-4.142 0-7.5 3.358-7.5 7.5s3.358 7.5 7.5 7.5h292.668c17.517 0 33.008-11.165 38.548-27.784l7.305-21.916h11.161c13.271 0 24.067-10.796 24.067-24.066.001-13.271-10.795-24.068-24.066-24.068zm-40.633-174.733v165.667c0 4.999-4.067 9.066-9.066 9.066h-209.465c1.027-2.638 1.597-5.503 1.597-8.5v-167.366c0-9.25-3.205-17.761-8.551-24.5h26.685v91.666c0 13.271 10.796 24.066 24.067 24.066s24.066-10.796 24.066-24.066v-16.567c0-2.502.998-4.833 2.81-6.561 1.809-1.727 4.183-2.616 6.705-2.495 4.752.224 8.618 4.496 8.618 9.524v66.033c0 6.547 2.717 12.895 7.456 17.415 4.522 4.315 10.375 6.653 16.592 6.653.39 0 .781-.009 1.173-.028 12.849-.605 22.913-11.37 22.913-24.507v-65.565c0-5.028 3.866-9.3 8.618-9.524 2.518-.121 4.895.768 6.705 2.495 1.812 1.728 2.81 4.059 2.81 6.561v33.601c0 6.547 2.717 12.895 7.456 17.414 4.806 4.585 11.115 6.94 17.765 6.625 12.849-.605 22.913-11.37 22.913-24.507v-107.112c10.486 3.215 18.133 12.986 18.133 24.512zm-58.722 32.052c-4.806-4.585-11.118-6.939-17.765-6.625-12.849.605-22.913 11.37-22.913 24.507v65.565c0 5.028-3.866 9.3-8.618 9.524-2.52.117-4.896-.768-6.705-2.495-1.812-1.729-2.81-4.059-2.81-6.562v-66.033c0-13.138-10.065-23.902-22.913-24.507-6.655-.309-12.958 2.04-17.765 6.625-4.738 4.52-7.456 10.868-7.456 17.415v16.567c0 4.999-4.067 9.066-9.066 9.066-5 0-9.067-4.067-9.067-9.066v-91.666h150.666v108.233c0 5.028-3.866 9.3-8.618 9.524-2.517.114-4.896-.767-6.706-2.495-1.811-1.728-2.81-4.059-2.81-6.561v-33.601c.001-6.548-2.716-12.895-7.454-17.415zm-323.878 134.181v-142.166h25.633c4.142 0 7.5-3.358 7.5-7.5s-3.358-7.5-7.5-7.5h-25.633v-10.2c0-13.509 10.991-24.5 24.5-24.5h101.666c13.509 0 24.5 10.991 24.5 24.5v142.733h-58.766c-4.142 0-7.5 3.358-7.5 7.5s3.358 7.5 7.5 7.5h58.767v9.633c0 4.687-3.813 8.5-8.5 8.5h-17.133-116.534c-4.687 0-8.5-3.813-8.5-8.5zm423.233 41.634h-463.866c-5 0-9.067-4.067-9.067-9.066s4.067-9.067 9.067-9.067h463.866c5 0 9.067 4.067 9.067 9.067 0 4.998-4.067 9.066-9.067 9.066z"/><path d="m496.217 41.416h-284.211c-2.601-4.919-7.765-8.283-13.706-8.283h-174.8c-12.958 0-23.5 10.542-23.5 23.5v34.267c0 12.958 10.542 23.5 23.5 23.5h51.833c4.142 0 7.5-3.358 7.5-7.5s-3.358-7.5-7.5-7.5h-27.2v-51.267h150.167c.276 0 .5.224.5.5v.283 49.7.284c0 .276-.224.5-.5.5h-92.967c-4.142 0-7.5 3.358-7.5 7.5s3.358 7.5 7.5 7.5h92.967c5.941 0 11.105-3.364 13.706-8.283h19.144c.432 0 .783.352.783.783v8.283c0 17.838 14.512 32.35 32.35 32.35h182.233c36.108 0 65.483-29.376 65.483-65.483v-24.85c.001-8.703-7.079-15.784-15.782-15.784zm-463.084 57.984h-9.633c-4.687 0-8.5-3.813-8.5-8.5v-34.267c0-4.687 3.813-8.5 8.5-8.5h9.633zm463.867-17.35c0 27.836-22.647 50.483-50.483 50.483h-182.234c-9.567 0-17.35-7.783-17.35-17.35v-8.283c0-8.703-7.08-15.783-15.783-15.783h-17.35v-34.7h282.417c.432 0 .783.352.783.784z"/></g></svg>