<?xml version="1.0" encoding="iso-8859-1"?>
<!-- Generator: Adobe Illustrator 19.0.0, SVG Export Plug-In . SVG Version: 6.00 Build 0)  -->
<svg version="1.1" id="Capa_1" xmlns="http://www.w3.org/2000/svg" xmlns:xlink="http://www.w3.org/1999/xlink" x="0px" y="0px"
	 viewBox="0 0 512 512" style="enable-background:new 0 0 512 512;" xml:space="preserve">
<g>
	<g>
		<path d="M493.377,246.333c1.061-5.507,1.623-11.188,1.623-17c0-28.951-8.908-58.74-24.44-81.73
			c-17.399-25.753-40.564-39.936-65.227-39.936c-24.663,0-47.828,14.183-65.227,39.936c-3.498,5.178-6.64,10.715-9.44,16.495
			c-2.8-5.78-5.942-11.317-9.44-16.495c-17.399-25.753-40.564-39.936-65.227-39.936c-24.663,0-47.828,14.183-65.227,39.936
			c-3.498,5.178-6.64,10.715-9.44,16.495c-2.8-5.78-5.942-11.317-9.44-16.495c-17.399-25.753-40.564-39.936-65.227-39.936
			s-47.828,14.183-65.227,39.936C25.908,170.593,17,200.383,17,229.333c0,5.812,0.562,11.493,1.624,17H0v83.333h22.109l32,74.667
			h105.485L180.335,351h1.996l20.741,53.333h105.856L329.669,351h1.996l20.741,53.333h105.486l32-74.667H512v-83.333H493.377z
			 M405.333,137.667c30.67,0,59.667,44.548,59.667,91.666c0,5.906-0.875,11.609-2.481,17H348.148
			c-1.606-5.391-2.481-11.094-2.481-17C345.667,182.215,374.663,137.667,405.333,137.667z M256,137.667
			c30.67,0,59.667,44.548,59.667,91.666c0,5.906-0.875,11.609-2.481,17H198.814c-1.606-5.391-2.481-11.094-2.481-17
			C196.333,182.215,225.33,137.667,256,137.667z M106.667,137.667c30.67,0,59.666,44.548,59.666,91.666
			c0,5.906-0.875,11.609-2.481,17H49.481c-1.606-5.391-2.481-11.094-2.481-17C47,182.215,75.997,137.667,106.667,137.667z
			 M482,299.666h-11.891l-32,74.667h-65.181L352.187,321h-43.041l-20.741,53.333h-64.811L202.854,321h-43.041l-20.741,53.333H73.891
			l-32-74.667H30v-23.333h452V299.666z"/>
	</g>
</g>
<g>
</g>
<g>
</g>
<g>
</g>
<g>
</g>
<g>
</g>
<g>
</g>
<g>
</g>
<g>
</g>
<g>
</g>
<g>
</g>
<g>
</g>
<g>
</g>
<g>
</g>
<g>
</g>
<g>
</g>
</svg>
