<svg id="Capa_1" enable-background="new 0 0 512 512" height="512" viewBox="0 0 512 512" width="512" xmlns="http://www.w3.org/2000/svg"><g><g><path d="m450.369 35.536c-8.202 0-15.632 3.358-20.995 8.77h-165.292c-2.531-7.299-9.459-12.562-17.608-12.562h-10.854c-1.113-11.206-10.592-19.987-22.085-19.987h-9.811c-3.743-6.99-11.115-11.757-19.583-11.757-8.467 0-15.839 4.767-19.581 11.757h-9.811c-8.467 0-15.84 4.767-19.581 11.757h-9.811c-12.239 0-22.196 9.957-22.196 22.196v38.798c0 12.239 9.957 22.196 22.196 22.196h9.811c.323.604.683 1.184 1.058 1.752.252 12.539 5.389 24.544 14.399 33.355 6.727 6.577 10.585 15.981 10.585 25.802v60.401h-87.291c-7.07 0-12.821 5.751-12.821 12.821v14.523c-3.311.779-5.779 3.745-5.779 7.294s2.468 6.515 5.779 7.294v18.279l-22.24 50.951c-11.521 26.391-8.231 57.308 8.584 80.684l56.07 77.95c6.391 8.886 16.742 14.19 27.687 14.19h105.885c10.946 0 21.296-5.305 27.687-14.19l56.071-77.95c16.815-23.377 20.104-54.293 8.584-80.684l-22.241-50.951v-18.279c3.312-.779 5.78-3.745 5.78-7.294s-2.468-6.515-5.78-7.294v-14.523c0-7.07-5.751-12.821-12.821-12.821h-87.292v-60.405c0-9.781 3.893-19.219 10.681-25.893 9.023-8.871 14.074-20.657 14.306-33.269 1.927-2.921 3.195-6.313 3.559-9.972h10.854c8.15 0 15.078-5.263 17.609-12.563h85.893c4.142 0 7.5-3.358 7.5-7.5s-3.358-7.5-7.5-7.5h-84.853v-11.606h156.249c-.375 1.877-.575 3.817-.575 5.803s.2 3.926.575 5.803h-36.396c-4.142 0-7.5 3.358-7.5 7.5s3.358 7.5 7.5 7.5h44.399c5.362 5.411 12.793 8.77 20.995 8.77 16.307 0 29.573-13.266 29.573-29.572.001-16.308-13.266-29.574-29.572-29.574zm-317.816 56.168h-7.196c-3.968 0-7.196-3.228-7.196-7.196v-38.798c0-3.968 3.228-7.196 7.196-7.196h7.196zm44.393-69.508c0-3.968 3.228-7.196 7.196-7.196s7.196 3.228 7.196 7.196v85.825c0 3.968-3.228 7.196-7.196 7.196-3.968 0-7.196-3.228-7.196-7.196zm-29.393 74.069v-62.312c0-3.968 3.228-7.196 7.196-7.196h7.196v76.704h-7.196c-3.968 0-7.196-3.228-7.196-7.196zm-87.935 314.836c-9.56-13.291-13.762-29.563-12.268-45.498h72.486c-2.85 7.54-4.422 15.702-4.422 24.228 0 7.757 1.31 15.209 3.69 22.169h-58.839zm192.976 77.95c-3.581 4.978-9.378 7.949-15.51 7.949h-105.885c-6.132 0-11.93-2.972-15.51-7.949l-44.634-62.051h55.323c12.247 18.966 33.556 31.558 57.763 31.558 23.767 0 45.371-12.318 57.784-31.558h55.303zm56.071-77.95-.647.899h-58.837c.451-1.324.877-2.661 1.249-4.023 1.092-3.996-1.263-8.12-5.258-9.211-3.996-1.091-8.12 1.263-9.211 5.258-6.36 23.277-27.668 39.535-51.819 39.535-29.625 0-53.727-24.102-53.727-53.728s24.102-53.728 53.727-53.728c23.394 0 43.94 14.95 51.127 37.202 1.273 3.941 5.498 6.102 9.442 4.832 3.941-1.273 6.105-5.5 4.832-9.442-.337-1.045-.705-2.073-1.088-3.092h72.477c1.495 15.935-2.707 32.207-12.267 45.498zm-13.889-113.811 20.903 47.887c.779 1.785 1.467 3.597 2.081 5.427h-77.161c-12.589-18.177-33.441-29.5-56.458-29.5-23.321 0-43.953 11.686-56.384 29.5h-77.234c.614-1.83 1.302-3.642 2.081-5.427l20.903-47.887h42.468c4.142 0 7.5-3.358 7.5-7.5s-3.358-7.5-7.5-7.5h-39.878v-12.138h216.088v12.138h-141.21c-4.142 0-7.5 3.358-7.5 7.5s3.358 7.5 7.5 7.5zm-2.591-54.277v12.138h-216.088v-12.138zm-84.947-111.993c-9.637 9.476-15.165 22.812-15.165 36.589v60.405h-15.863v-60.401c0-13.833-5.503-27.146-15.098-36.527-3.666-3.585-6.391-7.944-8.046-12.691.556.042 1.117.067 1.683.067h9.811c3.742 6.99 11.114 11.757 19.581 11.757s15.839-4.767 19.581-11.757h9.811c.58 0 1.151-.038 1.72-.082-1.636 4.715-4.344 9.03-8.015 12.64zm13.492-34.755c0 3.968-3.228 7.196-7.196 7.196h-7.196v-76.704h7.196c3.968 0 7.196 3.228 7.196 7.196zm29.392-16.44c0 2.012-1.637 3.649-3.649 3.649h-10.743v-36.73h10.744c2.012 0 3.649 1.637 3.649 3.649v29.432zm200.247-.144c-8.035 0-14.572-6.537-14.572-14.572 0-8.036 6.537-14.573 14.572-14.573 8.036 0 14.573 6.537 14.573 14.573 0 8.035-6.538 14.572-14.573 14.572z"/><path d="m287.904 140.389h-26.045c-3.739 0-7.223 2.011-9.093 5.25l-13.022 22.555c-1.871 3.239-1.871 7.263 0 10.501l13.022 22.556v.001c1.87 3.238 5.354 5.249 9.093 5.249h26.045c3.74 0 7.225-2.012 9.093-5.25l13.021-22.555c1.871-3.239 1.871-7.263 0-10.501l-13.021-22.554c-1.868-3.24-5.353-5.252-9.093-5.252zm-2.598 51.111h-20.849l-10.424-18.056 10.424-18.056h20.849l10.424 18.056z"/><path d="m73.226 158.717c0 .001.001.001 0 0 1.704 2.951 4.878 4.783 8.284 4.783h17.934c3.406 0 6.58-1.832 8.284-4.783l8.967-15.531c1.704-2.951 1.704-6.617 0-9.567l-8.968-15.532c-1.704-2.95-4.877-4.782-8.284-4.782h-17.933c-3.406 0-6.58 1.832-8.284 4.783l-8.969 15.534c-1.701 2.948-1.701 6.612.001 9.563zm11.422-30.411h11.66l5.83 10.097-5.83 10.097h-11.66l-5.83-10.097z"/></g></g></svg>