<svg id="Capa_1" enable-background="new 0 0 512 512" height="512" viewBox="0 0 512 512" width="512" xmlns="http://www.w3.org/2000/svg"><g><path d="m406 194c-20.195 0-30.408 4.086-40.286 8.036-8.952 3.581-17.408 6.964-34.714 6.964s-25.762-3.383-34.714-6.964c-9.878-3.95-20.091-8.036-40.286-8.036-20.194 0-30.408 4.085-40.285 8.036-8.953 3.581-17.41 6.964-34.715 6.964s-25.761-3.383-34.714-6.964c-9.878-3.951-20.092-8.036-40.286-8.036-4.142 0-7.5 3.357-7.5 7.5v243c0 20.678 16.822 37.5 37.5 37.5 4.142 0 7.5-3.357 7.5-7.5s-3.358-7.5-7.5-7.5c-12.407 0-22.5-10.094-22.5-22.5v-235.265c12.46.826 19.661 3.707 27.215 6.729 9.878 3.951 20.092 8.036 40.285 8.036 20.194 0 30.408-4.085 40.285-8.036 8.953-3.581 17.41-6.964 34.715-6.964 17.306 0 25.762 3.383 34.714 6.964 9.878 3.95 20.091 8.036 40.286 8.036s30.408-4.086 40.286-8.036c7.554-3.021 14.753-5.902 27.214-6.729v235.265c0 12.406-10.093 22.5-22.5 22.5h-210c-4.142 0-7.5 3.357-7.5 7.5s3.358 7.5 7.5 7.5h210c20.678 0 37.5-16.822 37.5-37.5v-243c0-4.143-3.358-7.5-7.5-7.5z"/><path d="m383.5 105.427v-16.717c8.729-3.096 15-11.433 15-21.21s-6.271-18.114-15-21.21v-8.79c0-20.678-16.822-37.5-37.5-37.5h-180c-20.678 0-37.5 16.822-37.5 37.5v8.79c-8.729 3.096-15 11.433-15 21.21 0 9.778 6.27 18.119 15 21.215v16.712c-33.702 3.744-60 32.39-60 67.073v272c0 37.22 30.28 67.5 67.5 67.5h240c37.22 0 67.5-30.28 67.5-67.5v-272c0-34.684-26.298-63.329-60-67.073zm-217.5-90.427h180c12.407 0 22.5 10.094 22.5 22.5v7.5h-225v-7.5c0-12.406 10.093-22.5 22.5-22.5zm-30 45h240c4.136 0 7.5 3.364 7.5 7.5s-3.364 7.5-7.5 7.5h-210c-4.142 0-7.5 3.357-7.5 7.5s3.358 7.5 7.5 7.5h202.5v15h-225v-22.5c0-4.143-3.358-7.5-7.5-7.5-4.136 0-7.5-3.364-7.5-7.5s3.364-7.5 7.5-7.5zm292.5 384.5c0 28.948-23.551 52.5-52.5 52.5h-240c-28.949 0-52.5-23.552-52.5-52.5v-272c0-28.948 23.551-52.5 52.5-52.5h240c28.949 0 52.5 23.552 52.5 52.5z"/></g></svg>