<svg xmlns="http://www.w3.org/2000/svg" width="213.68" height="470" viewBox="0 0 213.68 470">
  <g id="pomegranate_syrup" data-name="pomegranate syrup" transform="translate(-1359.242 -1682)">
    <path id="Path_54" data-name="Path 54" d="M332.023,155.641,286.638,65.715V45h2.5a7.5,7.5,0,0,0,7.5-7.5V7.5a7.5,7.5,0,0,0-7.5-7.5H180.859a7.5,7.5,0,0,0-7.5,7.5v30a7.5,7.5,0,0,0,7.5,7.5h2.5V65.715l-45.385,89.926c-5.5,10.9-9.816,29.017-9.816,41.233V442.5a27.531,27.531,0,0,0,27.5,27.5H314.338a27.531,27.531,0,0,0,27.5-27.5V196.874c0-12.217-4.311-30.328-9.815-41.233ZM188.359,15h93.278V30H188.359Zm9.2,55.879a7.5,7.5,0,0,0,.8-3.379V45h73.278V67.5a7.5,7.5,0,0,0,.8,3.379l28.543,56.553c-5.411,1.754-9.2,4.583-12.487,7.037-4.452,3.329-7.669,5.733-14.841,5.733s-10.389-2.4-14.841-5.733c-5.2-3.884-11.663-8.719-23.823-8.719s-18.625,4.835-23.821,8.72c-4.451,3.328-7.667,5.732-14.838,5.732s-10.387-2.4-14.838-5.732c-3.282-2.454-7.075-5.283-12.485-7.037l28.544-56.554ZM326.838,442.5a12.513,12.513,0,0,1-12.5,12.5H155.659a12.513,12.513,0,0,1-12.5-12.5V196.874c0-9.874,3.758-25.661,8.207-34.476L162.1,141.127c4.3.8,7,2.8,10.415,5.355,5.2,3.885,11.662,8.72,23.82,8.72s18.625-4.835,23.82-8.72c4.451-3.328,7.667-5.732,14.838-5.732s10.389,2.4,14.841,5.733c5.2,3.885,11.663,8.719,23.822,8.719s18.626-4.835,23.823-8.719c3.416-2.554,6.111-4.559,10.417-5.356L318.631,162.4c4.448,8.813,8.207,24.6,8.207,34.475Z" transform="translate(1231.084 1682)"/>
    <path id="Path_56" data-name="Path 56" d="M160.228,165.136a.931.931,0,0,0-1.25.411,9.889,9.889,0,0,0-.819,3.44v21.794a.931.931,0,1,0,1.861,0V168.987a8.226,8.226,0,0,1,.619-2.6A.931.931,0,0,0,160.228,165.136Z" transform="translate(1204.806 1803.843)"/>
    <path id="Path_58" data-name="Path 58" d="M49.124,244.054c.033,0,.067,0,.1,0a1.634,1.634,0,0,0,1.629-1.535c.076-1.261.193-2.548.347-3.827a1.634,1.634,0,0,0-3.244-.391c-.163,1.343-.285,2.7-.365,4.022A1.634,1.634,0,0,0,49.124,244.054Z" transform="translate(1361.738 1737.526)"/>
    <path id="Path_59" data-name="Path 59" d="M50.459,269.938a1.634,1.634,0,1,0-3.268.048c.244,16.468,6.925,25.572,7.209,25.952a1.634,1.634,0,0,0,2.617-1.956C56.955,293.9,50.686,285.274,50.459,269.938Z" transform="translate(1362.027 1714.631)"/>
    <path id="Path_60" data-name="Path 60" d="M240.622,299.991a4.431,4.431,0,0,0-5.7,0l-23.071,13.588a6.778,6.778,0,0,0-3.213,5.053,6.375,6.375,0,0,0,1.833,5.4L222.5,335.631a5.439,5.439,0,0,0,3.806,1.561,5.657,5.657,0,0,0,1.275-.147,6.4,6.4,0,0,0,4.506-4.13l9.677-26.485A5.136,5.136,0,0,0,240.622,299.991Zm-1.783,4.973a1.607,1.607,0,0,0-.106.232l-9.719,26.6a3.146,3.146,0,0,1-2.17,2.069,2.2,2.2,0,0,1-2.08-.584l-12.023-11.591a3.141,3.141,0,0,1-.855-2.669,3.494,3.494,0,0,1,1.627-2.619l23.175-13.648a1.707,1.707,0,0,0,.214-.151,1.419,1.419,0,0,1,.9-.381,1.147,1.147,0,0,1,.732.287A1.9,1.9,0,0,1,238.839,304.964Z" transform="translate(1244.583 1692.342)"/>
    <path id="Path_61" data-name="Path 61" d="M326.927,320.115a4.5,4.5,0,0,0-4.557-3.631,5.01,5.01,0,0,0-4.712,4.33l-8.453,26.932a6.619,6.619,0,0,0,1.046,6.125,5.483,5.483,0,0,0,4.327,2.12c.147,0,.295-.006.444-.018l16.392-1.284a6.107,6.107,0,0,0,4.677-2.931,6.9,6.9,0,0,0,.639-6.125Zm6.4,29.9a2.875,2.875,0,0,1-2.168,1.418l-16.392,1.284a2.244,2.244,0,0,1-1.961-.88,3.363,3.363,0,0,1-.485-3.111l8.488-27.043a1.558,1.558,0,0,0,.057-.247,1.78,1.78,0,0,1,1.607-1.684h.044c.389,0,1.025.167,1.246,1.188a1.552,1.552,0,0,0,.072.241l9.844,25.626a3.616,3.616,0,0,1-.349,3.209Z" transform="translate(1171.603 1679.59)"/>
    <path id="Path_62" data-name="Path 62" d="M205.112,241.9l23.368-14.148a1.634,1.634,0,0,0,.754-1.068l3.616-17.508a1.634,1.634,0,0,0-1.075-1.879,18.47,18.47,0,0,0-15.945,1.448c-4.472,2.634-8.55,7.362-11.8,13.671a56.393,56.393,0,0,0-5.153,14.811,4.489,4.489,0,0,0,1.8,4.582,3.977,3.977,0,0,0,2.264.708A4.182,4.182,0,0,0,205.112,241.9Zm-3.015-4.09c1.4-7.73,6.65-21.1,15.391-26.249a14.9,14.9,0,0,1,7.668-2.139,16.614,16.614,0,0,1,4.192.556l-3.169,15.348-22.759,13.778a.765.765,0,0,1-.889.014A1.259,1.259,0,0,1,202.1,237.815Z" transform="translate(1251.712 1759.88)"/>
    <path id="Path_63" data-name="Path 63" d="M394.4,243.09a1.634,1.634,0,0,0-2.1.795l-7.761,16.005a1.634,1.634,0,0,0-.062,1.28l9.694,26.141a3.527,3.527,0,0,0,2.189,2.3,3.305,3.305,0,0,0,1.044.163,7.694,7.694,0,0,0,3.949-1.558c5.163-3.4,8.362-13.406,7.441-23.285C407.817,254.467,402.571,246.5,394.4,243.09Zm5.156,42.4c-1.46.96-2.009,1.026-2.151,1.021a1.222,1.222,0,0,1-.169-.335l-9.451-25.487,6.753-13.929c4.163,2.167,9.95,7.183,11,18.478C406.343,273.86,403.714,282.756,399.555,285.49Z" transform="translate(1116.657 1733.089)"/>
    <path id="Path_64" data-name="Path 64" d="M285.225,234.027a1.634,1.634,0,0,0,2.87-1.562l-.433-.8a1.634,1.634,0,1,0-2.87,1.563Z" transform="translate(1189.27 1741.928)"/>
    <path id="Path_65" data-name="Path 65" d="M261.068,238.883a1.633,1.633,0,0,0,2.306-.142l.607-.686a1.634,1.634,0,0,0-2.449-2.164l-.606.687A1.634,1.634,0,0,0,261.068,238.883Z" transform="translate(1206.79 1738.638)"/>
    <path id="Path_66" data-name="Path 66" d="M287.736,255.435a1.634,1.634,0,0,0-2,1.157l-.241.9a1.634,1.634,0,0,0,3.157.844l.241-.9A1.634,1.634,0,0,0,287.736,255.435Z" transform="translate(1188.654 1724.054)"/>
    <path id="Path_67" data-name="Path 67" d="M243.771,256.594a1.634,1.634,0,0,0,2.956-1.391l-.387-.823a1.634,1.634,0,1,0-2.957,1.391Z" transform="translate(1219.371 1725.464)"/>
    <path id="Path_68" data-name="Path 68" d="M265.546,257.936l-.43.823a1.634,1.634,0,1,0,2.9,1.514l.43-.823a1.634,1.634,0,1,0-2.9-1.514Z" transform="translate(1203.578 1722.832)"/>
    <path id="Path_69" data-name="Path 69" d="M230.8,277.874a1.621,1.621,0,0,0,.728-.172l.8-.4a1.634,1.634,0,0,0-1.46-2.922l-.8.4a1.634,1.634,0,0,0,.732,3.1Z" transform="translate(1229.608 1710.339)"/>
    <path id="Path_70" data-name="Path 70" d="M250.287,281.822a1.634,1.634,0,0,0,1.621,1.45,1.752,1.752,0,0,0,.186-.011l.868-.1a1.634,1.634,0,1,0-.369-3.247l-.868.1A1.633,1.633,0,0,0,250.287,281.822Z" transform="translate(1214.242 1706.206)"/>
    <path id="Path_71" data-name="Path 71" d="M223.183,300.736a1.63,1.63,0,0,0,.92-.285l.743-.507a1.634,1.634,0,0,0-1.843-2.7l-.743.508a1.634,1.634,0,0,0,.923,2.983Z" transform="translate(1235.148 1693.795)"/>
    <path id="Path_72" data-name="Path 72" d="M419.495,281.028a1.633,1.633,0,0,0,.628-.126l.819-.341a1.634,1.634,0,1,0-1.257-3.016l-.818.341a1.634,1.634,0,0,0,.629,3.142Z" transform="translate(1092.291 1708.016)"/>
    <path id="Path_73" data-name="Path 73" d="M435.259,297.73a1.634,1.634,0,0,0,1.629,1.53c.035,0,.07,0,.105,0a1.634,1.634,0,0,0,1.527-1.734l-.059-.928a1.634,1.634,0,0,0-3.261.206Z" transform="translate(1079.674 1695.174)"/>
    <path id="Path_74" data-name="Path 74" d="M405.976,295.6a1.634,1.634,0,0,0-2.136.883l-.357.86A1.634,1.634,0,1,0,406.5,298.6l.357-.86A1.634,1.634,0,0,0,405.976,295.6Z" transform="translate(1102.843 1694.874)"/>
    <path id="Path_75" data-name="Path 75" d="M438.265,321.971l-.8.392A1.634,1.634,0,0,0,438.9,325.3l.8-.393a1.634,1.634,0,0,0-1.439-2.933Z" transform="translate(1078.689 1675.717)"/>
    <path id="Path_76" data-name="Path 76" d="M418.719,310.942l-.162.92a1.633,1.633,0,1,0,3.218.565l.161-.92a1.634,1.634,0,1,0-3.218-.564Z" transform="translate(1091.801 1684.605)"/>
    <path id="Path_77" data-name="Path 77" d="M438.779,346.127a1.634,1.634,0,0,0-2.966,1.371l.382.826a1.634,1.634,0,1,0,2.966-1.371Z" transform="translate(1079.336 1658.707)"/>
    <path id="Path_78" data-name="Path 78" d="M418.928,336.99l-.618-.638a1.634,1.634,0,0,0-2.346,2.275l.618.637a1.634,1.634,0,1,0,2.346-2.274Z" transform="translate(1094.005 1665.491)"/>
    <path id="Path_79" data-name="Path 79" d="M431.176,369.171a1.634,1.634,0,0,0-3.119.974l.273.876a1.634,1.634,0,0,0,3.12-.974Z" transform="translate(1084.925 1642.082)"/>
    <path id="Path_80" data-name="Path 80" d="M298.305,321.217l-.752.493a1.634,1.634,0,1,0,1.792,2.733l.752-.493a1.634,1.634,0,0,0-1.792-2.732Z" transform="translate(1180.375 1676.339)"/>
    <path id="Path_81" data-name="Path 81" d="M269.908,344.007a1.635,1.635,0,0,0,2.307-.142l.606-.687a1.634,1.634,0,0,0-2.448-2.164l-.607.686A1.634,1.634,0,0,0,269.908,344.007Z" transform="translate(1200.358 1662.139)"/>
    <path id="Path_82" data-name="Path 82" d="M292.573,349.2a1.634,1.634,0,0,0-2,1.157l-.241.9a1.634,1.634,0,1,0,3.157.844l.241-.9A1.634,1.634,0,0,0,292.573,349.2Z" transform="translate(1185.134 1655.821)"/>
    <path id="Path_83" data-name="Path 83" d="M245.814,380.785a1.633,1.633,0,0,0-2.058,1.049l-.288.888a1.634,1.634,0,1,0,3.108,1.009l.288-.887A1.634,1.634,0,0,0,245.814,380.785Z" transform="translate(1219.255 1632.854)"/>
    <path id="Path_84" data-name="Path 84" d="M282.067,377.095a1.635,1.635,0,0,0-2.206.69l-.43.823a1.634,1.634,0,0,0,2.9,1.515l.43-.823A1.634,1.634,0,0,0,282.067,377.095Z" transform="translate(1193.161 1635.617)"/>
    <path id="Path_85" data-name="Path 85" d="M239.787,361.337l.8-.4a1.634,1.634,0,0,0-1.46-2.923l-.8.4a1.634,1.634,0,1,0,1.46,2.923Z" transform="translate(1223.595 1649.49)"/>
    <path id="Path_86" data-name="Path 86" d="M261.093,368.631l.868-.1a1.634,1.634,0,1,0-.369-3.247l-.868.1a1.634,1.634,0,0,0,.182,3.258,1.678,1.678,0,0,0,.186-.01Z" transform="translate(1207.694 1644.082)"/>
    <path id="Path_87" data-name="Path 87" d="M266.009,402.022l-.743.507a1.634,1.634,0,1,0,1.843,2.7l.743-.507a1.634,1.634,0,0,0-1.842-2.7Z" transform="translate(1203.853 1617.549)"/>
    <path id="Path_88" data-name="Path 88" d="M354.211,343.649a1.634,1.634,0,1,0,3.1-1.029l-.289-.872a1.634,1.634,0,1,0-3.1,1.029Z" transform="translate(1138.879 1662.018)"/>
    <path id="Path_89" data-name="Path 89" d="M367.166,375.482a1.634,1.634,0,1,0-3.261.206l.059.927a1.633,1.633,0,0,0,1.629,1.531c.034,0,.069,0,.1,0a1.634,1.634,0,0,0,1.528-1.733Z" transform="translate(1131.556 1637.769)"/>
    <path id="Path_90" data-name="Path 90" d="M344.67,368.2a1.634,1.634,0,0,0-2.135.883l-.357.86A1.634,1.634,0,1,0,345.2,371.2l.357-.86A1.633,1.633,0,0,0,344.67,368.2Z" transform="translate(1147.455 1642.042)"/>
    <path id="Path_91" data-name="Path 91" d="M362.108,423a1.633,1.633,0,0,0-2.086.995l-.311.88a1.634,1.634,0,1,0,3.08,1.091l.312-.88A1.634,1.634,0,0,0,362.108,423Z" transform="translate(1134.674 1602.146)"/>
    <path id="Path_92" data-name="Path 92" d="M336.137,396.46a1.634,1.634,0,0,0-1.891,1.327l-.161.92a1.633,1.633,0,1,0,3.217.565l.162-.92A1.635,1.635,0,0,0,336.137,396.46Z" transform="translate(1153.272 1621.407)"/>
    <path id="Path_93" data-name="Path 93" d="M380.9,408.644a1.634,1.634,0,0,0-2.967,1.371l.381.826a1.634,1.634,0,0,0,2.966-1.371Z" transform="translate(1121.458 1613.213)"/>
    <path id="Path_94" data-name="Path 94" d="M358.281,403.116a1.634,1.634,0,0,0,1.173-2.771l-.618-.638a1.634,1.634,0,1,0-2.346,2.275l.618.637A1.631,1.631,0,0,0,358.281,403.116Z" transform="translate(1137.285 1619.387)"/>
    <path id="Path_95" data-name="Path 95" d="M333.418,425.717a1.634,1.634,0,1,0-3.119.973l.272.876a1.635,1.635,0,1,0,3.121-.974Z" transform="translate(1156.063 1600.933)"/>
    <path id="Path_96" data-name="Path 96" d="M329.139,235.839a4.722,4.722,0,0,0,2.246,1.992,4.532,4.532,0,0,0,1.549.272,4.856,4.856,0,0,0,3.733-1.79l9.919-12.065a3.312,3.312,0,0,0,.461-3.466c-1.184-2.575-5.25-8.534-17.326-8.234a3.205,3.205,0,0,0-3.065,3.141,26.617,26.617,0,0,1-.361,2.783c-.732,4.575-1.837,11.489,2.469,16.855C328.886,235.477,329.009,235.653,329.139,235.839Zm.381-16.852a28.323,28.323,0,0,0,.4-3.177c10.048-.214,13.248,4.357,14.153,6.322a.069.069,0,0,1-.011.04l-9.918,12.065a1.482,1.482,0,0,1-1.644.523c-.173-.063-.442-.449-.681-.79-.148-.212-.316-.453-.506-.69-3.4-4.236-2.47-10.049-1.791-14.293Z" transform="translate(1159.426 1755.23)"/>
    <path id="Path_97" data-name="Path 97" d="M372.772,240.622a1.634,1.634,0,0,0,2.87-1.562l-.434-.8a1.634,1.634,0,1,0-2.869,1.563Z" transform="translate(1125.561 1737.128)"/>
    <path id="Path_98" data-name="Path 98" d="M346.49,235.236l.607-.687a1.634,1.634,0,1,0-2.448-2.164l-.607.687a1.634,1.634,0,1,0,2.448,2.164Z" transform="translate(1146.306 1741.187)"/>
    <path id="Path_99" data-name="Path 99" d="M355.171,250.96l-.242.9a1.634,1.634,0,0,0,3.157.844l.241-.9a1.634,1.634,0,1,0-3.156-.844Z" transform="translate(1138.125 1728.152)"/>
    <path id="Path_100" data-name="Path 100" d="M348.267,275.223a1.657,1.657,0,0,0,.293-.027,1.634,1.634,0,0,0,1.316-1.9l-.164-.91a1.634,1.634,0,0,0-3.216.583l.165.91A1.634,1.634,0,0,0,348.267,275.223Z" transform="translate(1144.241 1712.654)"/>
    <path id="Path_101" data-name="Path 101" d="M124.656,76.361a6.759,6.759,0,0,1-1.762-8.8,23.632,23.632,0,0,1,5.55-6.325,1.635,1.635,0,0,0,.49-2.015,1.7,1.7,0,0,0-1.23-.908,13.206,13.206,0,0,0-6.71.359,33.583,33.583,0,0,0-.149-9.272,2.848,2.848,0,0,0-5.422-.844L111.824,56a11.258,11.258,0,0,0-2.126-3.1,12.337,12.337,0,0,0-9.463-3.385,1.635,1.635,0,0,0-1.461,1.579,1.67,1.67,0,0,0,.716,1.4,9.317,9.317,0,0,1,3.91,5.56c-3.015-4.609-7.684-8.512-13.774-11.464A55.538,55.538,0,0,0,73.006,41.7a40.031,40.031,0,0,0-8.982-.259,12.979,12.979,0,0,1,4.115-2.822,1.634,1.634,0,0,0,.049-2.941c-.243-.123-4.584-2.22-9.868,1.058a23.173,23.173,0,0,1,5.549-7.773,1.634,1.634,0,0,0-1.3-2.847,19.281,19.281,0,0,0-14.083,9.413c-.963-2.994-1.552-5.664-1.563-5.71a1.634,1.634,0,0,0-2.606-.936,12.765,12.765,0,0,0-5.065,8.606,13.7,13.7,0,0,0-7-2A16.294,16.294,0,0,0,25.432,36.9a1.634,1.634,0,0,0,.629,3.1c2.81.165,4.644,2.22,5.72,4.016a10.233,10.233,0,0,0-5.264.774,9.946,9.946,0,0,0-5.181,5.936,1.634,1.634,0,0,0,1.906,2.042,19.318,19.318,0,0,1,5.842-.113A56.373,56.373,0,0,0,11,93.733a53.57,53.57,0,0,0,53.564,53.455,56.077,56.077,0,0,0,14.821-1.953,50.673,50.673,0,0,0,6.847,3.073,49.343,49.343,0,0,0,16.8,2.976,44.816,44.816,0,0,0,19.4-4.309,38.259,38.259,0,0,0,19.979-22.2,39.138,39.138,0,0,0-.664-26.668,47.494,47.494,0,0,0-17.09-21.747ZM117.776,51.2c.456,4.229.21,7.532-.707,9.447a20.636,20.636,0,0,0-3.8,3.475,23.49,23.49,0,0,0-.138-3.322ZM106.9,61.208a12.507,12.507,0,0,0-1.889-7.662,7.6,7.6,0,0,1,2.353,1.629c2.317,2.377,3.122,6.388,2.392,11.924a2.315,2.315,0,0,0,1.473,2.494,2.265,2.265,0,0,0,2.69-.9c3.207-4.886,6.585-6.758,9.5-7.235a23.733,23.733,0,0,0-3.365,4.511,10.25,10.25,0,0,0,.3,10.54c-2.878.021-5.274-1.153-7.657-3.671-1.978-2.089-6.076-3.663-9.24-4.631a10.068,10.068,0,0,0,3.446-7ZM62.348,38.484a10,10,0,0,0-3.216,5.47,9.61,9.61,0,0,0-.156,1.1A7.455,7.455,0,0,0,56.5,45.1a7.984,7.984,0,0,0-1.461.422l.358-1.405C57.924,40.583,60.376,39.062,62.348,38.484Zm-4.9,9.778a18.407,18.407,0,0,0-1.086,6.054,21.332,21.332,0,0,0-3.759-2.65,7.769,7.769,0,0,1,4.312-3.318A4.5,4.5,0,0,1,57.449,48.262Zm.3-17.254a16.8,16.8,0,0,0-3.412,9.176q-.568.647-1.138,1.4a23.381,23.381,0,0,0-2.38-.367c-.271-.48-.532-1.006-.782-1.561a17.319,17.319,0,0,1,7.713-8.647ZM44.431,33.332A53.152,53.152,0,0,0,47.156,41.2a13.771,13.771,0,0,0-3.25.728A18.417,18.417,0,0,0,42.5,40.186,9.051,9.051,0,0,1,44.431,33.332ZM42.868,46.111c2.293-1.614,5.32-2.1,9.018-1.455l-1,3.933a17.142,17.142,0,0,0-1.276,1.663,18.267,18.267,0,0,0-2.036-.681l-.079-.018a13.144,13.144,0,0,0-8.01.761,10.513,10.513,0,0,1,3.384-4.2Zm4.983,6.978A18.878,18.878,0,0,0,45.633,59.1l-6.445-4.353c-.086-.116-.17-.233-.26-.346A9.633,9.633,0,0,1,46.8,52.749c.112.03.49.139,1.046.339ZM31.518,38.751a10.933,10.933,0,0,1,9.451,4.7l-.01.007a12.7,12.7,0,0,0-2.665,2.56L38.262,46a25.111,25.111,0,0,0-2.388-1.016A16.794,16.794,0,0,0,34.08,41.53,12.385,12.385,0,0,0,31.518,38.751ZM25.888,49.219a5.868,5.868,0,0,1,2-1.472c2.206-.973,5.127-.61,8.682,1.069a17.778,17.778,0,0,0-1.006,2.641A18.022,18.022,0,0,0,25.888,49.219Zm113.428,74.506a35.017,35.017,0,0,1-18.3,20.306c-10.116,4.859-22.389,5.3-33.671,1.206C73.1,140.07,62.888,128.736,59.3,115.992a1.6,1.6,0,0,0-1.538-1.165h-.057a1.6,1.6,0,0,0-1.541,2.044A46.913,46.913,0,0,0,75.4,142.832a54.926,54.926,0,0,1-10.84,1.089,50.3,50.3,0,0,1-50.3-50.188c0-15.308,7.1-30.547,18.585-40.023a10.161,10.161,0,0,1,1.637.939c2.318,1.644,3.728,4.254,4.192,7.757a1.634,1.634,0,0,0,3.24-.429q-.112-.847-.287-1.641l4.751,3.209a1.634,1.634,0,0,0,2.5-1.733c-.542-2.271.863-5.452,1.956-7.374a15.516,15.516,0,0,1,6.063,5.592,1.634,1.634,0,0,0,3.02-1.114,23.038,23.038,0,0,1,.1-7.972,20.317,20.317,0,0,0,3.322,5.333,1.634,1.634,0,0,0,2.423-2.193c-.042-.047-4.106-4.62-3.513-9.061,4.844-1.165,16.027-.3,25.938,4.5,9.116,4.419,12.955,10.172,14.568,14.434a6.317,6.317,0,0,1-4.1,3.135c-.038.007-.074.015-.111.024a5.632,5.632,0,0,1-1.253.106A44.034,44.034,0,0,0,72.3,73.93a37.682,37.682,0,0,0-17.667,32.235,1.6,1.6,0,0,0,1.6,1.581H56.3a1.607,1.607,0,0,0,1.6-1.627,34.438,34.438,0,0,1,16.16-29.434A40.6,40.6,0,0,1,96,70.472q.609,0,1.222.017c.082,0,.16,0,.24,0a8.791,8.791,0,0,0,1.458-.124c2.74.626,9.295,2.488,11.4,4.713,2.989,3.156,6.213,4.692,9.949,4.692a15.7,15.7,0,0,0,3.087-.327A44.137,44.137,0,0,1,138.69,99.262,35.908,35.908,0,0,1,139.316,123.725Z" transform="translate(1388.364 1890.904)"/>
  </g>
</svg>
