<svg height="491pt" viewBox="0 -3 491.312 491" width="491pt" xmlns="http://www.w3.org/2000/svg"><path d="m477.65625 253.8125h-464c-4.417969 0-8 3.582031-8 8 .132812 99.773438 76.582031 182.859375 176 191.28125v24.71875c0 4.417969 3.582031 8 8 8h112c4.417969 0 8-3.582031 8-8v-24.71875c99.417969-8.421875 175.867188-91.507812 176-191.28125 0-4.417969-3.582031-8-8-8zm-184 216h-96v-16h96zm0-32h-96c-94.046875-.117188-171.429688-74.058594-175.824219-168h447.648438c-4.394531 93.941406-81.777344 167.882812-175.824219 168zm0 0"/><path d="m77.65625 157.8125c2.121094 0 4.15625-.84375 5.65625-2.34375l18.34375-18.34375 12.6875 12.6875-10.34375 10.34375c-3.125 3.125-3.125 8.1875 0 11.3125l24 24c3.125 3.121094 8.1875 3.121094 11.3125 0l80-80c3.121094-3.125 3.121094-8.1875 0-11.3125l-24-24c-3.125-3.125-8.1875-3.125-11.3125 0l-10.34375 10.34375-12.6875-12.6875 18.34375-18.34375c3.121094-3.125 3.121094-8.1875 0-11.3125l-48-48-11.3125 11.3125 42.34375 42.34375-84.6875 84.6875-66.34375-66.34375-11.3125 11.3125 72 72c1.5 1.5 3.535156 2.34375 5.65625 2.34375zm112-60.6875 12.6875 12.6875-68.6875 68.6875-12.6875-12.6875zm-40-8 12.6875 12.6875-36.6875 36.6875-12.6875-12.6875zm0 0"/><path d="m413.65625 138.5-84.6875-84.6875 42.34375-42.34375-11.3125-11.3125-48 48c-3.125 3.125-3.125 8.1875 0 11.3125l18.34375 18.34375-12.6875 12.6875-10.34375-10.34375c-3.125-3.125-8.1875-3.125-11.3125 0l-24 24c-3.125 3.125-3.125 8.1875 0 11.3125l80 80c3.125 3.121094 8.1875 3.121094 11.3125 0l24-24c3.121094-3.125 3.121094-8.1875 0-11.3125l-10.34375-10.34375 12.6875-12.6875 18.34375 18.34375c3.125 3.121094 8.1875 3.121094 11.3125 0l72-72-11.3125-11.3125zm-56 40-68.6875-68.6875 12.6875-12.6875 68.6875 68.6875zm8-40-36.6875-36.6875 12.6875-12.6875 36.6875 36.6875zm0 0"/><path d="m181.65625 173.8125h16v16h-16zm0 0"/><path d="m197.65625 205.8125h16v16h-16zm0 0"/><path d="m157.65625 221.8125h16v16h-16zm0 0"/><path d="m277.65625 173.8125h16v16h-16zm0 0"/><path d="m261.65625 205.8125h16v16h-16zm0 0"/><path d="m301.65625 221.8125h16v16h-16zm0 0"/></svg>