<svg height="512pt" viewBox="0 -17 512 512" width="512pt" xmlns="http://www.w3.org/2000/svg"><path d="m502.6875 255.828125c1.226562-5.113281-1.246094-10.394531-5.953125-12.730469-11.597656-5.746094-18.914063-17.589844-18.867187-30.53125v-8.191406c15.511718-2.195312 26.675781-16.023438 25.550781-31.648438-1.125-15.621093-14.152344-27.710937-29.816407-27.660156h-134.402343c-2.492188-9.796875-7.160157-18.910156-13.652344-26.65625 4.027344-1.726562 6.683594-5.644531 6.796875-10.023437.109375-4.382813-2.339844-8.429688-6.273438-10.363281-11.597656-5.742188-18.914062-17.582032-18.871093-30.523438v-8.191406c15.511719-2.195313 26.675781-16.023438 25.550781-31.648438-1.121094-15.625-14.152344-27.7109372-29.816406-27.660156h-264.535156c-15.664063-.0507812-28.691407 12.035156-29.816407 27.660156s10.039063 29.453125 25.550781 31.648438v8.191406c.042969 12.945312-7.277343 24.785156-18.878906 30.53125-3.960937 1.960938-6.410156 6.058594-6.25 10.476562.15625 4.417969 2.886719 8.332032 6.976563 10.003907-10.253907 12.230469-15.9062502 27.660156-15.980469 43.621093v128c.0273438 23.554688 19.113281 42.640626 42.667969 42.667969h128v102.398438c.027343 23.554687 19.113281 42.640625 42.664062 42.667969h256c23.554688-.027344 42.640625-19.113282 42.667969-42.667969v-128c-.074219-15.957031-5.726562-31.390625-15.980469-43.621094 3.339844-1.359375 5.820313-4.242187 6.667969-7.75zm-294.507812-8.359375c8.835937-9.472656 13.726562-21.953125 13.6875-34.902344v-7.765625h238.933593v7.765625c-.042969 12.949219 4.851563 25.429688 13.683594 34.902344zm278.21875-72.535156c-.007813 7.066406-5.734376 12.792968-12.796876 12.800781h-4.269531v-8.535156c0-4.710938-3.820312-8.53125-8.53125-8.53125-4.714843 0-8.535156 3.820312-8.535156 8.53125v8.535156h-17.066406v-8.535156c0-4.710938-3.820313-8.53125-8.53125-8.53125-4.714844 0-8.535157 3.820312-8.535157 8.53125v8.535156h-17.066406v-8.535156c0-4.710938-3.820312-8.53125-8.53125-8.53125-4.714844 0-8.535156 3.820312-8.535156 8.53125v8.535156h-17.066406v-8.535156c0-4.710938-3.820313-8.53125-8.535156-8.53125-4.710938 0-8.53125 3.820312-8.53125 8.53125v8.535156h-17.066407v-8.535156c0-4.710938-3.820312-8.53125-8.535156-8.53125-4.710937 0-8.53125 3.820312-8.53125 8.53125v8.535156h-17.066406v-8.535156c0-4.710938-3.820313-8.53125-8.535157-8.53125-4.710937 0-8.53125 3.820312-8.53125 8.53125v8.535156h-17.066406v-8.535156c0-4.710938-3.824218-8.53125-8.535156-8.53125s-8.535156 3.820312-8.535156 8.53125v8.535156h-17.066406v-8.535156c0-4.710938-3.820313-8.53125-8.53125-8.53125-4.714844 0-8.535157 3.820312-8.535157 8.53125v8.535156h-4.265625c-7.070312 0-12.800781-5.730469-12.800781-12.800781 0-7.070313 5.730469-12.800782 12.800781-12.800782h264.535156c7.0625.007813 12.789063 5.734376 12.796876 12.800782zm-448.886719-72.535156c8.835937-9.46875 13.730469-21.949219 13.6875-34.898438v-7.765625h238.933593v7.765625c-.039062 12.949219 4.851563 25.429688 13.683594 34.898438zm-11.910157-72.53125c.007813-7.066407 5.734376-12.792969 12.796876-12.800782h264.535156c7.070312 0 12.800781 5.730469 12.800781 12.800782 0 7.070312-5.730469 12.800781-12.800781 12.800781h-4.265625v-8.535157c0-4.710937-3.820313-8.53125-8.535157-8.53125-4.710937 0-8.53125 3.820313-8.53125 8.53125v8.535157h-17.066406v-8.535157c0-4.710937-3.824218-8.53125-8.535156-8.53125s-8.535156 3.820313-8.535156 8.53125v8.535157h-17.066406v-8.535157c0-4.710937-3.820313-8.53125-8.53125-8.53125-4.714844 0-8.535157 3.820313-8.535157 8.53125v8.535157h-17.066406v-8.535157c0-4.710937-3.820313-8.53125-8.53125-8.53125-4.714844 0-8.535156 3.820313-8.535156 8.53125v8.535157h-17.066407v-8.535157c0-4.710937-3.820312-8.53125-8.53125-8.53125-4.714843 0-8.535156 3.820313-8.535156 8.53125v8.535157h-17.066406v-8.535157c0-4.710937-3.820312-8.53125-8.535156-8.53125-4.710938 0-8.53125 3.820313-8.53125 8.53125v8.535157h-17.066406v-8.535157c0-4.710937-3.820313-8.53125-8.535157-8.53125-4.710937 0-8.53125 3.820313-8.53125 8.53125v8.535157h-17.066406v-8.535157c0-4.710937-3.820313-8.53125-8.535156-8.53125-4.710938 0-8.53125 3.820313-8.53125 8.53125v8.535157h-4.269531c-7.0625-.007813-12.789063-5.734375-12.796876-12.800781zm17.066407 285.867187c-14.132813-.015625-25.585938-11.46875-25.601563-25.601563v-128c-.066406-17.226562 8.640625-33.304687 23.101563-42.664062h261.023437c9.347656 6.082031 16.425782 15.082031 20.136719 25.597656h-112.261719c-15.664062-.050781-28.695312 12.039063-29.816406 27.660156-1.125 15.625 10.039062 29.453126 25.550781 31.648438v8.191406c.042969 12.945313-7.28125 24.785156-18.878906 30.53125-3.964844 1.960938-6.410156 6.058594-6.253906 10.476563s2.890625 8.332031 6.980469 10.003906c-10.253907 12.230469-15.90625 27.664063-15.980469 43.621094v8.535156zm452.265625 119.464844c-.015625 14.132812-11.46875 25.585937-25.601563 25.601562h-256c-14.128906-.015625-25.582031-11.46875-25.597656-25.601562v-128c-.066406-17.226563 8.640625-33.304688 23.101563-42.664063h260.996093c14.460938 9.359375 23.167969 25.4375 23.101563 42.664063zm0 0"/><path d="m213.332031 307.199219c-4.710937 0-8.53125 3.820312-8.53125 8.535156v8.53125c0 4.714844 3.820313 8.535156 8.53125 8.535156 4.714844 0 8.535157-3.820312 8.535157-8.535156v-8.53125c0-4.714844-3.820313-8.535156-8.535157-8.535156zm0 0"/><path d="m213.332031 341.332031c-4.710937 0-8.53125 3.820313-8.53125 8.535157v68.265624c0 4.714844 3.820313 8.535157 8.53125 8.535157 4.714844 0 8.535157-3.820313 8.535157-8.535157v-68.265624c0-4.714844-3.820313-8.535157-8.535157-8.535157zm0 0"/><path d="m42.667969 162.132812c-4.714844 0-8.535157 3.820313-8.535157 8.535157v8.53125c0 4.714843 3.820313 8.535156 8.535157 8.535156 4.710937 0 8.53125-3.820313 8.53125-8.535156v-8.53125c0-4.714844-3.820313-8.535157-8.53125-8.535157zm0 0"/><path d="m42.667969 196.265625c-4.714844 0-8.535157 3.820313-8.535157 8.535156v68.265625c0 4.714844 3.820313 8.535156 8.535157 8.535156 4.710937 0 8.53125-3.820312 8.53125-8.535156v-68.265625c0-4.714843-3.820313-8.535156-8.53125-8.535156zm0 0"/></svg>