<svg height="512" viewBox="0 0 60 60" width="512" xmlns="http://www.w3.org/2000/svg"><g id="Page-1" fill="none" fill-rule="evenodd"><g id="033---Butter-Pot" fill="rgb(0,0,0)" fill-rule="nonzero"><path id="Shape" d="m10.47 56h3.53c.5522847 0 1-.4477153 1-1s-.4477153-1-1-1h-2.663l-.307-2.142c-.0784244-.5467619-.5852381-.9264244-1.132-.848s-.92642443.5852381-.848 1.132l.43 3c.07064202.4924379.49252097.8580663.99.858z"/><path id="Shape" d="m2 33.142h.139l3.5 23.424c.29014055 1.9663176 1.97340944 3.4256322 3.961 3.434h40.8c1.9851872-.0080582 3.6670892-1.4643755 3.959-3.428l3.5-23.43h.141c.5751588-.0001205 1.1224259-.2478507 1.5020508-.6799301s.5548571-1.0066794.4809492-1.5770699l-.717-6.168c-.1447857-.9827077-.9856949-1.7122888-1.979-1.717h-54.574c-1.00219941.0072441-1.84673816.7499439-1.982 1.743l-.71 6.116c-.08202159.5738251.08895015 1.1550096.46862937 1.5930125.37967923.4380028.93071318.6897335 1.51037063.6899875zm50.378 23.141c-.1447282.9823346-.9850748 1.7117962-1.978 1.717h-40.8c-.9960395-.0050915-1.83843691-.7382027-1.981-1.724l-3.458-23.134h51.678zm4.905-31.309.236 2.026h-11.519c-.5522847 0-1 .4477153-1 1s.4477153 1 1 1h11.753l.247 2.142-56-.027.249-2.115h10.751c.5522847 0 1-.4477153 1-1s-.4477153-1-1-1h-10.519l.232-2z"/><path id="Shape" d="m46.874 18.108c.5579289.5739985 1.3255361.8960613 2.126.892 1.6568542 0 3-1.3431458 3-3v-11.531c.2413444-.35680695.4460491-.73706847.611-1.135.2773875-.75543001.1675794-1.59878623-.294-2.258-.4680974-.67335043-1.2359297-1.07519261-2.056-1.076h-41.761c-1.85261104-.00472654-3.38627722 1.43851742-3.494 3.288-.0537148.93997926.28695367 1.85978412.94 2.538.7050207.74689412 1.68591771 1.17135895 2.713 1.174h14.341c.9824986.10806796 1.9107553.50554421 2.667 1.142.246.163.492.326.742.481 1.5004008.89569033 3.1807171 1.4475991 4.92 1.616 1.0379362.1160751 2.0815945.1734996 3.126.172.506 0 1.027-.032 1.545-.058v5.647c0 2.209139 1.790861 4 4 4s4-1.790861 4-4v-3c-.0008733-.2694422.1099083-.5272084.306-.712.1823963-.1865985.4330776-.2906276.694-.288.5522847 0 1 .4477153 1 1v3c-.0059733.7919954.309374 1.5525814.874 2.108zm-15.319-9.857c-1.4482899-.13495575-2.8486007-.58954443-4.1-1.331-.231-.142-.459-.294-.686-.444-1.0753703-.86664814-2.3910863-1.38190335-3.769-1.476h-14.341c-.47664483-.00134037-.93182149-.19837872-1.259-.545-.27268725-.27847365-.41754702-.65764411-.4-1.047.04525629-.79390251.70482445-1.41301716 1.5-1.408h41.761c.1661251-.00047512.321638.08159075.415.219.0866415.11419547.1123753.26337664.069.4-.1395311.33314914-.3195522.64785021-.536.937 0 .006-.011.009-.015.015-.9522636 1.14072514-2.1904994 2.00797338-3.588 2.513-.9740056.39944478-1.9735547.7335187-2.992 1-.147.04-.3.079-.453.118-.21.055-.418.107-.627.158-.31.077-.62.149-.931.218-.243.053-.485.1-.726.152-.264.053-.529.1-.793.151-.218.039-.434.073-.65.108-.306.048-.613.1-.918.137-.153.02-.3.036-.454.054-.349.041-.7.08-1.044.11-1.8177638.16875212-3.6478308.15568739-5.463-.039zm13.445 1.749c-1.6534434.0082058-2.9917942 1.3465566-3 3v3c0 1.1045695-.8954305 2-2 2s-2-.8954305-2-2v-5.792c.159-.018.32-.051.479-.071.5-.062 1.009-.137 1.52-.222.359-.06.716-.121 1.075-.191.516-.1 1.038-.218 1.563-.341.2-.048.4-.081.6-.131.222-.054.449-.116.675-.176.08-.022.158-.036.238-.058 1.5763033-.40019632 3.1025713-.97648829 4.55-1.718l.17-.1c.319-.178.628-.372.929-.578.063-.043.14-.081.2-.125v9.503c0 .5522847-.4477153 1-1 1-.2694422.0008733-.5272084-.1099083-.712-.306-.1862311-.182565-.2898902-.4332249-.287-.694v-3c0-1.6568542-1.3431458-3-3-3z"/><path id="Shape" d="m27 15.5c0 1.9329966 1.5670034 3.5 3.5 3.5s3.5-1.5670034 3.5-3.5-1.5670034-3.5-3.5-3.5-3.5 1.5670034-3.5 3.5zm5 0c0 .8284271-.6715729 1.5-1.5 1.5s-1.5-.6715729-1.5-1.5.6715729-1.5 1.5-1.5 1.5.6715729 1.5 1.5z"/><path id="Shape" d="m19 29h22c.5522847 0 1-.4477153 1-1s-.4477153-1-1-1h-22c-.5522847 0-1 .4477153-1 1s.4477153 1 1 1z"/></g></g></svg>